{
    "asset" : {
        "generator" : "Khronos glTF Blender I/O v1.8.19",
        "version" : "2.0"
    },
    "scene" : 0,
    "scenes" : [
        {
            "name" : "Scene",
            "nodes" : [
                0
            ]
        }
    ],
    "nodes" : [
        {
            "mesh" : 0,
            "name" : "detail_raam",
            "rotation" : [
                0.7071068286895752,
                0,
                0,
                0.7071067094802856
            ]
        }
    ],
    "materials" : [
        {
            "doubleSided" : true,
            "name" : "SAM_7101",
            "pbrMetallicRoughness" : {
                "baseColorFactor" : [
                    1,
                    1,
                    1,
                    0.7171000242233276
                ],
                "baseColorTexture" : {
                    "index" : 0
                },
                "metallicFactor" : 0
            }
        },
        {
            "doubleSided" : true,
            "name" : "Paint",
            "pbrMetallicRoughness" : {
                "baseColorFactor" : [
                    0.9215999841690063,
                    0.9215999841690063,
                    0.9215999841690063,
                    1
                ],
                "metallicFactor" : 0,
                "roughnessFactor" : 0.6612902283668518
            }
        },
        {
            "doubleSided" : true,
            "name" : "Plaster",
            "pbrMetallicRoughness" : {
                "baseColorFactor" : [
                    0.3215999901294708,
                    0.3215999901294708,
                    0.3215999901294708,
                    1
                ],
                "metallicFactor" : 0
            }
        }
    ],
    "meshes" : [
        {
            "name" : "detail_raam",
            "primitives" : [
                {
                    "attributes" : {
                        "POSITION" : 0,
                        "NORMAL" : 1,
                        "TEXCOORD_0" : 2
                    },
                    "indices" : 3,
                    "material" : 0
                },
                {
                    "attributes" : {
                        "POSITION" : 4,
                        "NORMAL" : 5,
                        "TEXCOORD_0" : 6
                    },
                    "indices" : 7,
                    "material" : 1
                },
                {
                    "attributes" : {
                        "POSITION" : 8,
                        "NORMAL" : 9,
                        "TEXCOORD_0" : 10
                    },
                    "indices" : 11,
                    "material" : 2
                }
            ]
        }
    ],
    "textures" : [
        {
            "sampler" : 0,
            "source" : 0
        }
    ],
    "images" : [
        {
            "bufferView" : 4,
            "mimeType" : "image/jpeg",
            "name" : "istockphoto-540971362-612x612"
        }
    ],
    "accessors" : [
        {
            "bufferView" : 0,
            "componentType" : 5126,
            "count" : 75,
            "max" : [
                946.537109375,
                -666.1959838867188,
                -459.0167236328125
            ],
            "min" : [
                946.537109375,
                -837.7711791992188,
                -879.984375
            ],
            "type" : "VEC3"
        },
        {
            "bufferView" : 1,
            "componentType" : 5126,
            "count" : 75,
            "type" : "VEC3"
        },
        {
            "bufferView" : 2,
            "componentType" : 5126,
            "count" : 75,
            "type" : "VEC2"
        },
        {
            "bufferView" : 3,
            "componentType" : 5123,
            "count" : 324,
            "type" : "SCALAR"
        },
        {
            "bufferView" : 5,
            "componentType" : 5126,
            "count" : 1183,
            "max" : [
                962.1437377929688,
                -626.6455688476562,
                -372.88134765625
            ],
            "min" : [
                956.1437377929688,
                -877.0692749023438,
                -950.8840942382812
            ],
            "type" : "VEC3"
        },
        {
            "bufferView" : 6,
            "componentType" : 5126,
            "count" : 1183,
            "type" : "VEC3"
        },
        {
            "bufferView" : 7,
            "componentType" : 5126,
            "count" : 1183,
            "type" : "VEC2"
        },
        {
            "bufferView" : 8,
            "componentType" : 5123,
            "count" : 4944,
            "type" : "SCALAR"
        },
        {
            "bufferView" : 9,
            "componentType" : 5126,
            "count" : 4019,
            "max" : [
                970.9744873046875,
                -623.3492431640625,
                -334.3232727050781
            ],
            "min" : [
                943.8999633789062,
                -877.9338989257812,
                -878.3898315429688
            ],
            "type" : "VEC3"
        },
        {
            "bufferView" : 10,
            "componentType" : 5126,
            "count" : 4019,
            "type" : "VEC3"
        },
        {
            "bufferView" : 11,
            "componentType" : 5126,
            "count" : 4019,
            "type" : "VEC2"
        },
        {
            "bufferView" : 12,
            "componentType" : 5123,
            "count" : 13752,
            "type" : "SCALAR"
        }
    ],
    "bufferViews" : [
        {
            "buffer" : 0,
            "byteLength" : 900,
            "byteOffset" : 0
        },
        {
            "buffer" : 0,
            "byteLength" : 900,
            "byteOffset" : 900
        },
        {
            "buffer" : 0,
            "byteLength" : 600,
            "byteOffset" : 1800
        },
        {
            "buffer" : 0,
            "byteLength" : 648,
            "byteOffset" : 2400
        },
        {
            "buffer" : 0,
            "byteLength" : 113976,
            "byteOffset" : 3048
        },
        {
            "buffer" : 0,
            "byteLength" : 14196,
            "byteOffset" : 117024
        },
        {
            "buffer" : 0,
            "byteLength" : 14196,
            "byteOffset" : 131220
        },
        {
            "buffer" : 0,
            "byteLength" : 9464,
            "byteOffset" : 145416
        },
        {
            "buffer" : 0,
            "byteLength" : 9888,
            "byteOffset" : 154880
        },
        {
            "buffer" : 0,
            "byteLength" : 48228,
            "byteOffset" : 164768
        },
        {
            "buffer" : 0,
            "byteLength" : 48228,
            "byteOffset" : 212996
        },
        {
            "buffer" : 0,
            "byteLength" : 32152,
            "byteOffset" : 261224
        },
        {
            "buffer" : 0,
            "byteLength" : 27504,
            "byteOffset" : 293376
        }
    ],
    "samplers" : [
        {
            "magFilter" : 9729,
            "minFilter" : 9987
        }
    ],
    "buffers" : [
        {
            "byteLength" : 320880,
            "uri" : "data:application/octet-stream;base64,"
        }
    ]
}
